<svg xmlns="http://www.w3.org/2000/svg" viewBox="0 0 96 96" width="96" height="96" role="img" aria-label="扶九API Logo">
  <title>扶九API · 大鹏金翅抽象徽标</title>
  <!-- 扁平底色圆 -->
  <circle cx="48" cy="48" r="45" fill="#0F766E"/>
  <!-- 左翼 · 上层飞羽 -->
  <path d="M46 50 C33 46 21 36 16 20 C27 31 38 37 46 39 Z" fill="#F0A93B"/>
  <!-- 右翼 · 上层飞羽 -->
  <path d="M50 50 C63 46 75 36 80 20 C69 31 58 37 50 39 Z" fill="#F0A93B"/>
  <!-- 左翼 · 下层飞羽 -->
  <path d="M46 61 C38 59 30 53 27 44 C33 51 40 54 46 54 Z" fill="#F0A93B"/>
  <!-- 右翼 · 下层飞羽 -->
  <path d="M50 61 C58 59 66 53 69 44 C63 51 56 54 50 54 Z" fill="#F0A93B"/>
  <!-- 旭日 / 凤首 -->
  <circle cx="48" cy="27" r="3.5" fill="#FFFFFF"/>
</svg>
