<svg xmlns="http://www.w3.org/2000/svg" viewBox="0 0 96 96" width="96" height="96" role="img" aria-label="扶九API Logo">
  <title>扶九API · 大鹏金翅徽标</title>
  <!-- 扁平底色圆 -->
  <circle cx="48" cy="48" r="45" fill="#0F766E"/>
  <!-- 左翼 · 上层飞羽 -->
  <path d="M46 57 C33 53 21 43 16 27 C27 38 38 44 46 46 Z" fill="#F0A93B"/>
  <!-- 右翼 · 上层飞羽 -->
  <path d="M50 57 C63 53 75 43 80 27 C69 38 58 44 50 46 Z" fill="#F0A93B"/>
  <!-- 左翼 · 下层飞羽 -->
  <path d="M46 68 C38 66 30 60 27 51 C33 58 40 61 46 61 Z" fill="#F0A93B"/>
  <!-- 右翼 · 下层飞羽 -->
  <path d="M50 68 C58 66 66 60 69 51 C63 58 56 61 50 61 Z" fill="#F0A93B"/>
  <!-- 旭日 / 凤首 -->
  <circle cx="48" cy="34" r="4" fill="#FFFFFF"/>
</svg>
